PathFileType	4	(X/Y/Z)	Walk6.trc
DataRate	CameraRate	NumFrames	NumMarkers	Units	OrigDataRate	OrigDataStartFrame	OrigNumFrames
200.000000	200.000000	4	59	mm	200.000000	515	554
Frame#	Times		C7		CLAV		STRN		RBack		LASI		RASI		RACR1		RUA1		RElbow		RFA1		RWRR		RWRU		RCAR		LACR1		LFA1		LWRU		LCAR		RTH1		RTH3		RTH2		RTH4		RLFC		LTH1		LTH3		LTH2		LTH4		LLFC		LTB1		LTB3		LTB2		LTB4		LMMAL		LMT1		LToe		LFHD		RFHD		T10		LMT5		LPSI		RPSI		LLMAL		RBHD		RTB1		LUA1		LBHD		RTB2		RTB3		RToe		RTB4		LCAL		RElbowM		RCAL		RMT1		LElbow		LElbowM		LWRR		RLMAL		RMT5		RMMAL
			X1	Y1	Z1	X2	Y2	Z2	X3	Y3	Z3	X4	Y4	Z4	X5	Y5	Z5	X6	Y6	Z6	X7	Y7	Z7	X8	Y8	Z8	X9	Y9	Z9	X10	Y10	Z10	X11	Y11	Z11	X12	Y12	Z12	X13	Y13	Z13	X14	Y14	Z14	X15	Y15	Z15	X16	Y16	Z16	X17	Y17	Z17	X18	Y18	Z18	X19	Y19	Z19	X20	Y20	Z20	X21	Y21	Z21	X22	Y22	Z22	X23	Y23	Z23	X24	Y24	Z24	X25	Y25	Z25	X26	Y26	Z26	X27	Y27	Z27	X28	Y28	Z28	X29	Y29	Z29	X30	Y30	Z30	X31	Y31	Z31	X32	Y32	Z32	X33	Y33	Z33	X34	Y34	Z34	X35	Y35	Z35	X36	Y36	Z36	X37	Y37	Z37	X38	Y38	Z38	X39	Y39	Z39	X40	Y40	Z40	X41	Y41	Z41	X42	Y42	Z42	X43	Y43	Z43	X44	Y44	Z44	X45	Y45	Z45	X46	Y46	Z46	X47	Y47	Z47	X48	Y48	Z48	X49	Y49	Z49	X50	Y50	Z50	X51	Y51	Z51	X52	Y52	Z52	X53	Y53	Z53	X54	Y54	Z54	X55	Y55	Z55	X56	Y56	Z56	X57	Y57	Z57	X58	Y58	Z58	X59	Y59	Z59

515	2.575	780.14	1430.4	-63.711	906.63	1354	-69.296	983.3	1129.6	-63.718	738.71	1326	33.986	927.68	948.43	-187.21	935.88	962.01	83.729	857.03	1365.5	105.75	821.76	1155.8	167.95	790.23	1052.2	190.86	843.22	907.99	200.16	856.59	801.9	163.7	808.08	801.18	219.06	851.61	757.1	214.24	842.79	1367.6	-236.83	894.03	923.42	-297.33	879.77	802.7	-312.34	931.37	768.33	-295.91	876.67	760.37	130.98	940.71	584.93	96.58	972.29	702.31	95.21	909.52	672.4	113.32	962.44	497.39	81.834	825.18	741.53	-214.35	839.56	559.35	-174.16	904.52	654.26	-170.34	831.02	646.16	-193.29	834.68	450.72	-159.76	849.7	349.75	-79.494	798.23	169.32	-76.252	802.79	263.24	-149.77	825.69	257.5	-81.651	755.4	75.358	-40.511	884.11	37.929	-84.574	929.51	28.965	-114.18	943.48	1598.7	-97.045	951.76	1599.2	-24.352	749.47	1146.2	-57.516	842.38	20.814	-161.76	716.23	986.55	-95.196	720.6	989.12	19.189	736.92	63.942	-120.63	782.19	1556.1	14.263	951.34	372.27	18.47	835.63	1158.7	-285.09	773.7	1566.1	-112.08	879.75	313.52	86.026	842.41	222.9	18.883	900.84	41.271	75.736	895.86	297.33	18.829	687.92	32.31	-64.825	773.76	1031.5	108.14	697.95	140.63	12.773	874.32	57.796	40.158	826.54	1039	-299.56	793.49	1024.3	-237.82	920.13	810.44	-253.74	747.33	154.03	65.533	818.36	56.691	101	780.39	154.49	-9.2719
516	2.58	785.44	1430.2	-63.621	911.89	1353.9	-69.361	988.4	1129.4	-64.139	744	1325.8	33.946	932.89	948.11	-187.31	941.42	962.27	83.279	862.36	1365.2	105.75	826.26	1155.6	167.76	794.37	1052	190.48	846.42	907.58	200.09	859.14	801.31	163.8	810.48	801.01	219.03	853.67	756.58	214.36	847.93	1367.7	-236.8	902.27	924.33	-297.73	889.61	803.44	-312.5	941.66	769.87	-295.91	882.56	760.7	131.15	947.58	585.72	96.376	978.49	703.27	95.184	915.87	672.96	113.34	969.68	497.95	81.57	829.35	741.19	-214.29	842.81	558.96	-174.04	908.24	653.48	-170.26	834.68	645.78	-193.11	837.33	450.33	-159.56	851.67	349.24	-79.274	799.03	169.15	-76.086	804.3	263	-149.62	827.06	257.14	-81.45	755.68	75.391	-40.346	884.15	37.932	-84.583	929.57	28.963	-114.24	949.04	1598.4	-96.861	957.32	1598.8	-24.168	754.84	1146	-57.714	842.35	20.81	-161.75	721.35	986.45	-95.212	725.87	989.12	19.129	737.12	64.164	-120.55	787.67	1556.1	14.411	961.33	372.41	18.09	841.72	1159	-285.56	779.21	1566.1	-111.91	891.06	311.86	85.34	856.26	220.31	18.07	919.44	40.531	75.831	907.8	296.07	18.219	688.01	32.617	-64.679	778.11	1031.5	107.67	714.06	134.11	11.406	892.72	56.522	40.002	833.42	1039.2	-300.3	800.43	1024.2	-238.61	929.86	811.89	-253.86	762.85	149.04	64.33	836.31	53.969	100.49	796.12	150.34	-10.353
517	2.585	790.75	1430.1	-63.51	917.16	1353.7	-69.414	993.51	1129.2	-64.545	749.31	1325.6	33.927	938.07	947.72	-187.4	946.94	962.44	82.84	867.7	1364.8	105.76	830.78	1155.3	167.6	798.54	1051.8	190.13	849.69	907.14	200.05	861.76	800.67	163.91	812.96	800.8	219.02	855.8	756.02	214.47	853.07	1367.8	-236.75	910.47	925.22	-298.14	899.41	804.18	-312.64	951.91	771.41	-295.91	888.42	760.98	131.34	954.35	586.42	96.184	984.63	704.14	95.141	922.16	673.45	113.38	976.77	498.38	81.337	833.54	740.81	-214.22	846.11	558.54	-173.91	911.98	652.68	-170.15	838.39	645.37	-192.92	840.03	449.91	-159.36	853.69	348.71	-79.045	799.86	168.97	-75.908	805.84	262.75	-149.46	828.46	256.76	-81.239	755.97	75.409	-40.163	884.18	37.932	-84.588	929.64	28.961	-114.3	954.59	1598.1	-96.656	962.87	1598.4	-23.963	760.23	1145.8	-57.889	842.32	20.807	-161.73	726.48	986.3	-95.215	731.15	989.07	19.082	737.34	64.391	-120.46	793.15	1555.9	14.58	971.22	372.48	17.722	847.8	1159.3	-286.02	784.72	1566.1	-111.73	902.4	310.11	84.678	870.18	217.68	17.28	938.16	39.884	75.982	919.75	294.76	17.626	688.1	32.945	-64.533	782.5	1031.4	107.23	730.44	127.55	10.047	911.24	55.336	39.9	840.29	1039.4	-301	807.38	1024	-239.36	939.55	813.32	-253.98	778.56	144.01	63.153	854.42	51.293	100.01	812.06	146.17	-11.403
518	2.59	796.06	1429.9	-63.379	922.44	1353.4	-69.453	998.64	1129	-64.934	754.62	1325.3	33.927	943.22	947.26	-187.47	952.44	962.52	82.413	873.06	1364.4	105.78	835.33	1154.9	167.46	802.77	1051.6	189.82	853.01	906.65	200.04	864.45	800.01	164.02	815.53	800.54	219.01	858.02	755.43	214.59	858.21	1367.9	-236.69	918.64	926.07	-298.55	909.16	804.9	-312.76	962.11	772.94	-295.91	894.26	761.2	131.53	961.03	587.03	96.005	990.7	704.91	95.08	928.39	673.87	113.42	983.7	498.68	81.135	837.78	740.39	-214.13	849.47	558.09	-173.77	915.76	651.87	-170.02	842.14	644.93	-192.73	842.8	449.46	-159.15	855.74	348.15	-78.807	800.7	168.78	-75.718	807.43	262.48	-149.29	829.89	256.36	-81.019	756.28	75.418	-39.962	884.22	37.928	-84.589	929.71	28.957	-114.36	960.13	1597.7	-96.432	968.42	1598	-23.74	765.64	1145.5	-58.041	842.29	20.804	-161.7	731.61	986.1	-95.205	736.43	988.96	19.051	737.57	64.622	-120.38	798.63	1555.7	14.77	980.99	372.49	17.367	853.84	1159.5	-286.46	790.22	1566	-111.52	913.75	308.28	84.041	884.18	215.04	16.514	956.99	39.347	76.177	931.69	293.42	17.05	688.19	33.294	-64.389	786.95	1031.2	106.84	747.09	120.99	8.6995	929.89	54.255	39.842	847.13	1039.5	-301.67	814.36	1023.7	-240.06	949.21	814.74	-254.09	794.49	138.96	62.004	872.68	48.68	99.564	828.22	142.01	-12.418
